<svg width="40" height="40" viewBox="0 0 40 40" fill="none" xmlns="http://www.w3.org/2000/svg">
  <path d="M0.000355183 19.889C-0.064812 30.9371 8.84572 39.9432 19.8937 39.9996C30.9418 40.0648 39.9435 31.1499 40 20.1019C40.0565 9.05825 31.1546 0.0564799 20.1066 1.59265e-06C20.0719 1.59265e-06 20.0371 1.59265e-06 19.9937 1.59265e-06C9.00212 -0.00434289 0.0568334 8.88012 0.000355183 19.889Z" fill="#E4002B"/>
  <path d="M26.9928 31.6579H13.0035C11.8957 31.6579 10.9964 30.7586 10.9964 29.6508V21.4267H9.31942C8.50701 21.4267 7.78148 20.9401 7.46867 20.1928C7.15587 19.4412 7.32531 18.5854 7.89878 18.0076L18.5732 7.28104C18.9468 6.90741 19.4638 6.69019 19.9938 6.69019C20.5238 6.69019 21.0408 6.90741 21.4145 7.28104L32.0889 18.0076C32.6623 18.5854 32.8318 19.4412 32.519 20.1928C32.2062 20.9444 31.4806 21.4267 30.6682 21.4267H28.9999V29.6508C28.9999 30.7586 28.1006 31.6579 26.9928 31.6579ZM19.9982 8.42798C19.9243 8.42798 19.8591 8.45405 19.807 8.50618L9.13261 19.2327C9.05441 19.3109 9.03269 19.4239 9.07613 19.5238C9.11958 19.6237 9.21516 19.6889 9.32377 19.6889H11.8696C12.3475 19.6889 12.7385 20.0799 12.7385 20.5578V29.6508C12.7385 29.7985 12.8602 29.9201 13.0079 29.9201H26.9971C27.1448 29.9201 27.2665 29.7985 27.2665 29.6508V20.5578C27.2665 20.0799 27.6575 19.6889 28.1354 19.6889H30.6812C30.7899 19.6889 30.8854 19.6237 30.9289 19.5238C30.9723 19.4239 30.9463 19.3109 30.8724 19.2327L20.1893 8.50618C20.1372 8.45405 20.072 8.42798 19.9982 8.42798Z" fill="white"/>
</svg>
